<?xml version="1.0" encoding="utf-8"?>
<!-- Generator: Adobe Illustrator 21.0.2, SVG Export Plug-In . SVG Version: 6.00 Build 0)  -->
<svg version="1.1" id="Layer_1" xmlns="http://www.w3.org/2000/svg" xmlns:xlink="http://www.w3.org/1999/xlink" x="0px" y="0px"
	 viewBox="0 0 120 50" style="enable-background:new 0 0 120 50;" xml:space="preserve">
<style type="text/css">
	.st0{fill:#FFFFFF;}
	.st1{fill:#00C0FF;}
	.st2{fill:#222222;}
</style>
<g>
	<g>
		<path class="st2" d="M39,27.1V8h8.2c0.9,0,1.6,0.2,2.4,0.5c0.7,0.4,1.3,0.8,1.9,1.4c0.5,0.6,0.9,1.3,1.2,2
			c0.3,0.7,0.4,1.5,0.4,2.3c0,0.6-0.1,1.3-0.3,1.9c-0.2,0.6-0.4,1.1-0.7,1.6c-0.3,0.5-0.7,0.9-1.2,1.3c-0.5,0.4-1,0.6-1.5,0.8
			l4.5,7.3h-3.4l-4.1-6.7H42v6.7H39z M42,17.8h5.2c0.4,0,0.8-0.1,1.2-0.3s0.6-0.4,0.9-0.8c0.2-0.3,0.4-0.7,0.6-1.1s0.2-0.9,0.2-1.4
			s-0.1-0.9-0.3-1.4c-0.2-0.4-0.4-0.8-0.7-1.1s-0.6-0.6-1-0.8c-0.4-0.2-0.7-0.3-1.1-0.3H42V17.8z"/>
		<path class="st2" d="M69.6,24.5v2.7h-13V8h12.7v2.7h-9.8v5.4h8.5v2.5h-8.5v5.9H69.6z"/>
		<path class="st2" d="M73.9,8l5.7,15.4L85.3,8h3.2l-7.6,19.2h-2.6L70.7,8H73.9z"/>
		<path class="st2" d="M103.8,24.5v2.7h-13V8h12.7v2.7h-9.8v5.4h8.5v2.5h-8.5v5.9H103.8z"/>
		<path class="st2" d="M106.8,27.1V8h3v16.5H120v2.7H106.8z"/>
	</g>
</g>
<g>
	<g>
		<path class="st2" d="M39.8,41.8v-8h3.3c0.3,0,0.7,0.1,0.9,0.2c0.3,0.2,0.5,0.3,0.7,0.6c0.2,0.2,0.4,0.5,0.5,0.8s0.2,0.6,0.2,0.9
			c0,0.3,0,0.5-0.1,0.8c-0.1,0.2-0.2,0.5-0.3,0.7c-0.1,0.2-0.3,0.4-0.5,0.5s-0.4,0.3-0.6,0.3l1.8,3h-1.3L42.8,39H41v2.8H39.8z
			 M41,37.9h2.1c0.2,0,0.3,0,0.5-0.1c0.1-0.1,0.3-0.2,0.4-0.3c0.1-0.1,0.2-0.3,0.2-0.5s0.1-0.4,0.1-0.6c0-0.2,0-0.4-0.1-0.6
			c-0.1-0.2-0.2-0.3-0.3-0.5c-0.1-0.1-0.2-0.2-0.4-0.3c-0.1-0.1-0.3-0.1-0.4-0.1h-2V37.9z"/>
		<path class="st2" d="M49.8,41.9c-0.4,0-0.8-0.1-1.2-0.2c-0.4-0.2-0.7-0.4-0.9-0.7c-0.3-0.3-0.4-0.6-0.6-1C47,39.7,47,39.3,47,38.9
			c0-0.4,0.1-0.8,0.2-1.2c0.1-0.4,0.3-0.7,0.6-1c0.2-0.3,0.6-0.5,0.9-0.7c0.4-0.2,0.7-0.2,1.2-0.2c0.4,0,0.8,0.1,1.2,0.2
			c0.3,0.2,0.6,0.4,0.9,0.7c0.2,0.3,0.4,0.6,0.6,1c0.1,0.4,0.2,0.7,0.2,1.1c0,0.1,0,0.2,0,0.3c0,0.1,0,0.1,0,0.2h-4.4
			c0,0.3,0.1,0.5,0.2,0.7c0.1,0.2,0.2,0.4,0.4,0.5c0.2,0.2,0.3,0.3,0.5,0.4c0.2,0.1,0.4,0.1,0.6,0.1c0.2,0,0.3,0,0.5-0.1
			c0.2,0,0.3-0.1,0.4-0.2c0.1-0.1,0.2-0.2,0.3-0.3c0.1-0.1,0.2-0.2,0.2-0.4l1,0.3c-0.2,0.4-0.5,0.8-0.9,1.1
			C50.9,41.7,50.4,41.9,49.8,41.9z M51.5,38.4c0-0.2-0.1-0.5-0.2-0.7c-0.1-0.2-0.2-0.4-0.4-0.5c-0.1-0.1-0.3-0.3-0.5-0.3
			c-0.2-0.1-0.4-0.1-0.6-0.1c-0.2,0-0.4,0-0.6,0.1c-0.2,0.1-0.4,0.2-0.5,0.3c-0.1,0.1-0.3,0.3-0.4,0.5c-0.1,0.2-0.1,0.4-0.2,0.7
			H51.5z"/>
		<path class="st2" d="M55.9,41.9c-0.3,0-0.5,0-0.7-0.1c-0.2-0.1-0.4-0.2-0.6-0.4s-0.3-0.4-0.4-0.6C54,40.5,54,40.3,54,40
			c0-0.3,0.1-0.5,0.2-0.8c0.1-0.2,0.3-0.4,0.5-0.6c0.2-0.2,0.5-0.3,0.7-0.4c0.3-0.1,0.6-0.1,0.9-0.1c0.3,0,0.5,0,0.8,0.1
			c0.3,0,0.5,0.1,0.7,0.2v-0.4c0-0.4-0.1-0.8-0.3-1c-0.2-0.2-0.6-0.4-1-0.4c-0.3,0-0.6,0.1-0.9,0.2c-0.3,0.1-0.6,0.3-0.9,0.5
			l-0.4-0.8c0.7-0.5,1.5-0.8,2.2-0.8c0.8,0,1.4,0.2,1.8,0.6c0.4,0.4,0.6,1,0.6,1.8v2.1c0,0.3,0.1,0.4,0.3,0.4v1.1
			c-0.1,0-0.2,0-0.3,0c-0.1,0-0.2,0-0.2,0c-0.2,0-0.4-0.1-0.5-0.2c-0.1-0.1-0.2-0.3-0.2-0.5l0-0.4c-0.2,0.3-0.6,0.6-0.9,0.8
			C56.7,41.8,56.3,41.9,55.9,41.9z M56.2,41c0.3,0,0.5-0.1,0.8-0.2c0.3-0.1,0.4-0.3,0.6-0.5c0.1-0.1,0.2-0.3,0.2-0.4v-0.8
			c-0.2-0.1-0.4-0.1-0.6-0.2c-0.2,0-0.4-0.1-0.7-0.1c-0.4,0-0.8,0.1-1,0.3c-0.3,0.2-0.4,0.4-0.4,0.8c0,0.3,0.1,0.5,0.3,0.7
			C55.6,40.9,55.9,41,56.2,41z"/>
		<path class="st2" d="M61.2,33.6h1.2v6.5c0,0.2,0.1,0.4,0.2,0.5c0.1,0.1,0.3,0.2,0.4,0.2c0.1,0,0.2,0,0.3,0c0.1,0,0.2-0.1,0.3-0.1
			l0.2,1c-0.2,0.1-0.4,0.1-0.6,0.2c-0.2,0-0.4,0.1-0.6,0.1c-0.4,0-0.7-0.1-0.9-0.3c-0.2-0.2-0.3-0.6-0.3-1V33.6z"/>
		<path class="st2" d="M70.4,40.7v1.1h-5.2v-8h5.1v1.1h-3.9v2.3h3.4v1h-3.4v2.4H70.4z"/>
		<path class="st2" d="M74.3,41.9c-0.4,0-0.9-0.1-1.3-0.2c-0.4-0.2-0.8-0.4-1.1-0.7l0.5-0.8c0.3,0.3,0.7,0.4,1,0.6
			c0.3,0.1,0.7,0.2,1,0.2c0.3,0,0.6-0.1,0.8-0.2c0.2-0.1,0.3-0.3,0.3-0.6c0-0.2-0.1-0.4-0.3-0.5c-0.2-0.1-0.6-0.2-1.1-0.4
			c-0.3-0.1-0.6-0.2-0.9-0.3c-0.2-0.1-0.4-0.2-0.6-0.3c-0.2-0.1-0.3-0.3-0.3-0.4c-0.1-0.2-0.1-0.3-0.1-0.6c0-0.3,0.1-0.6,0.2-0.8
			c0.1-0.2,0.3-0.4,0.5-0.6c0.2-0.2,0.4-0.3,0.7-0.4c0.3-0.1,0.5-0.1,0.8-0.1c0.4,0,0.8,0.1,1.2,0.2c0.4,0.1,0.7,0.3,1,0.6l-0.5,0.7
			c-0.5-0.4-1.1-0.7-1.6-0.7c-0.3,0-0.5,0.1-0.7,0.2c-0.2,0.1-0.3,0.3-0.3,0.6c0,0.1,0,0.2,0.1,0.3c0,0.1,0.1,0.2,0.2,0.2
			c0.1,0.1,0.2,0.1,0.4,0.2c0.2,0,0.3,0.1,0.6,0.2c0.4,0.1,0.7,0.2,1,0.3c0.3,0.1,0.5,0.2,0.7,0.3c0.2,0.1,0.3,0.3,0.4,0.5
			c0.1,0.2,0.1,0.4,0.1,0.6c0,0.6-0.2,1-0.6,1.3C75.5,41.7,74.9,41.9,74.3,41.9z"/>
		<path class="st2" d="M81.4,41.5c-0.1,0.1-0.4,0.2-0.6,0.3s-0.5,0.1-0.8,0.1c-0.2,0-0.4,0-0.5-0.1s-0.3-0.1-0.4-0.2
			c-0.1-0.1-0.2-0.2-0.3-0.4c-0.1-0.2-0.1-0.4-0.1-0.6v-3.7h-0.7v-1h0.7V34h1.2v1.9h1.2v1h-1.2v3.3c0,0.2,0.1,0.4,0.2,0.5
			c0.1,0.1,0.2,0.1,0.4,0.1s0.3,0,0.5-0.1c0.1-0.1,0.3-0.1,0.3-0.1L81.4,41.5z"/>
		<path class="st2" d="M84.4,41.9c-0.3,0-0.5,0-0.7-0.1c-0.2-0.1-0.4-0.2-0.6-0.4s-0.3-0.4-0.4-0.6c-0.1-0.2-0.1-0.5-0.1-0.7
			c0-0.3,0.1-0.5,0.2-0.8c0.1-0.2,0.3-0.4,0.5-0.6c0.2-0.2,0.5-0.3,0.7-0.4c0.3-0.1,0.6-0.1,0.9-0.1c0.3,0,0.5,0,0.8,0.1
			c0.3,0,0.5,0.1,0.7,0.2v-0.4c0-0.4-0.1-0.8-0.3-1c-0.2-0.2-0.6-0.4-1-0.4c-0.3,0-0.6,0.1-0.9,0.2c-0.3,0.1-0.6,0.3-0.9,0.5
			l-0.4-0.8c0.7-0.5,1.5-0.8,2.2-0.8c0.8,0,1.4,0.2,1.8,0.6c0.4,0.4,0.6,1,0.6,1.8v2.1c0,0.3,0.1,0.4,0.3,0.4v1.1
			c-0.1,0-0.2,0-0.3,0c-0.1,0-0.2,0-0.2,0c-0.2,0-0.4-0.1-0.5-0.2c-0.1-0.1-0.2-0.3-0.2-0.5l0-0.4c-0.2,0.3-0.6,0.6-0.9,0.8
			C85.2,41.8,84.8,41.9,84.4,41.9z M84.7,41c0.3,0,0.5-0.1,0.8-0.2c0.3-0.1,0.4-0.3,0.6-0.5c0.1-0.1,0.2-0.3,0.2-0.4v-0.8
			c-0.2-0.1-0.4-0.1-0.6-0.2c-0.2,0-0.4-0.1-0.7-0.1c-0.4,0-0.8,0.1-1,0.3c-0.3,0.2-0.4,0.4-0.4,0.8c0,0.3,0.1,0.5,0.3,0.7
			C84.2,40.9,84.4,41,84.7,41z"/>
		<path class="st2" d="M92.8,41.5c-0.1,0.1-0.4,0.2-0.6,0.3c-0.3,0.1-0.5,0.1-0.8,0.1c-0.2,0-0.4,0-0.5-0.1s-0.3-0.1-0.4-0.2
			c-0.1-0.1-0.2-0.2-0.3-0.4C90,41,90,40.8,90,40.5v-3.7h-0.7v-1H90V34h1.2v1.9h1.2v1h-1.2v3.3c0,0.2,0.1,0.4,0.2,0.5
			c0.1,0.1,0.2,0.1,0.4,0.1c0.2,0,0.3,0,0.5-0.1c0.1-0.1,0.3-0.1,0.3-0.1L92.8,41.5z"/>
		<path class="st2" d="M96.7,41.9c-0.4,0-0.8-0.1-1.2-0.2c-0.4-0.2-0.7-0.4-0.9-0.7c-0.3-0.3-0.4-0.6-0.6-1
			c-0.1-0.4-0.2-0.8-0.2-1.2c0-0.4,0.1-0.8,0.2-1.2c0.1-0.4,0.3-0.7,0.6-1c0.2-0.3,0.6-0.5,0.9-0.7c0.4-0.2,0.7-0.2,1.2-0.2
			c0.4,0,0.8,0.1,1.2,0.2c0.3,0.2,0.6,0.4,0.9,0.7c0.2,0.3,0.4,0.6,0.6,1c0.1,0.4,0.2,0.7,0.2,1.1c0,0.1,0,0.2,0,0.3
			c0,0.1,0,0.1,0,0.2h-4.4c0,0.3,0.1,0.5,0.2,0.7c0.1,0.2,0.2,0.4,0.4,0.5c0.2,0.2,0.3,0.3,0.5,0.4c0.2,0.1,0.4,0.1,0.6,0.1
			c0.2,0,0.3,0,0.5-0.1c0.2,0,0.3-0.1,0.4-0.2c0.1-0.1,0.2-0.2,0.3-0.3c0.1-0.1,0.2-0.2,0.2-0.4l1,0.3c-0.2,0.4-0.5,0.8-0.9,1.1
			C97.8,41.7,97.3,41.9,96.7,41.9z M98.4,38.4c0-0.2-0.1-0.5-0.2-0.7c-0.1-0.2-0.2-0.4-0.4-0.5c-0.1-0.1-0.3-0.3-0.5-0.3
			c-0.2-0.1-0.4-0.1-0.6-0.1c-0.2,0-0.4,0-0.6,0.1c-0.2,0.1-0.4,0.2-0.5,0.3c-0.1,0.1-0.3,0.3-0.4,0.5s-0.1,0.4-0.2,0.7H98.4z"/>
		<path class="st2" d="M104.4,37.7c0-0.5,0.1-1,0.2-1.4s0.4-0.9,0.7-1.3c0.3-0.4,0.7-0.7,1.1-0.9c0.5-0.2,1-0.3,1.5-0.3
			c0.7,0,1.3,0.2,1.8,0.5c0.5,0.3,0.9,0.7,1.1,1.3l-0.9,0.7c-0.1-0.2-0.2-0.4-0.4-0.6c-0.1-0.2-0.3-0.3-0.5-0.4
			c-0.2-0.1-0.4-0.2-0.6-0.2c-0.2,0-0.4-0.1-0.6-0.1c-0.4,0-0.7,0.1-1,0.3c-0.3,0.2-0.5,0.4-0.7,0.7c-0.2,0.3-0.4,0.6-0.5,0.9
			c-0.1,0.3-0.2,0.7-0.2,1c0,0.4,0.1,0.8,0.2,1.1c0.1,0.4,0.3,0.7,0.5,0.9c0.2,0.3,0.5,0.5,0.8,0.6c0.3,0.2,0.6,0.2,1,0.2
			c0.2,0,0.4,0,0.6-0.1c0.2,0,0.4-0.1,0.6-0.2c0.2-0.1,0.3-0.2,0.5-0.4c0.2-0.2,0.3-0.4,0.4-0.6l1,0.6c-0.1,0.3-0.3,0.6-0.5,0.8
			c-0.2,0.2-0.5,0.4-0.7,0.6s-0.6,0.3-0.9,0.4c-0.3,0.1-0.6,0.1-0.9,0.1c-0.5,0-1-0.1-1.4-0.4c-0.4-0.2-0.8-0.6-1.1-0.9
			c-0.3-0.4-0.6-0.8-0.7-1.3C104.5,38.7,104.4,38.2,104.4,37.7z"/>
		<path class="st2" d="M115.2,41.9c-0.4,0-0.8-0.1-1.2-0.2c-0.3-0.2-0.6-0.4-0.9-0.7s-0.4-0.6-0.6-1c-0.1-0.4-0.2-0.8-0.2-1.2
			c0-0.4,0.1-0.8,0.2-1.2c0.1-0.4,0.3-0.7,0.6-1c0.3-0.3,0.6-0.5,0.9-0.7c0.3-0.2,0.7-0.2,1.2-0.2s0.8,0.1,1.2,0.2
			c0.3,0.2,0.6,0.4,0.9,0.7s0.4,0.6,0.6,1c0.1,0.4,0.2,0.8,0.2,1.2c0,0.4-0.1,0.8-0.2,1.2c-0.1,0.4-0.3,0.7-0.6,1s-0.6,0.5-0.9,0.7
			C116,41.8,115.7,41.9,115.2,41.9z M113.6,38.9c0,0.3,0,0.5,0.1,0.8c0.1,0.2,0.2,0.4,0.3,0.6c0.1,0.2,0.3,0.3,0.5,0.4
			c0.2,0.1,0.4,0.2,0.7,0.2c0.2,0,0.5-0.1,0.7-0.2c0.2-0.1,0.4-0.2,0.5-0.4c0.1-0.2,0.3-0.4,0.3-0.6c0.1-0.2,0.1-0.5,0.1-0.8
			c0-0.3,0-0.5-0.1-0.8c-0.1-0.2-0.2-0.5-0.3-0.6c-0.1-0.2-0.3-0.3-0.5-0.4c-0.2-0.1-0.4-0.2-0.7-0.2c-0.2,0-0.4,0.1-0.6,0.2
			c-0.2,0.1-0.4,0.2-0.5,0.4s-0.3,0.4-0.4,0.6C113.6,38.3,113.6,38.6,113.6,38.9z"/>
		<path class="st2" d="M119.8,41.8v-1.4h1v1.4H119.8z"/>
	</g>
</g>
<polygon class="st2" points="34,31 17.4,22.3 17.4,18.2 34,26.8 "/>
<polygon class="st2" points="0.8,31 17.4,22.3 17.4,18.2 0.8,26.8 "/>
<polygon class="st1" points="34,36.6 17.4,28 17.4,23.8 34,32.5 "/>
<polygon class="st2" points="34,42.3 17.4,33.6 17.4,29.5 34,38.1 "/>
<g>
	<polygon class="st1" points="17.4,16.6 17.4,16.8 21.2,18.8 34,12.1 34,7.9 	"/>
	<g>
		<polygon class="st1" points="28,22.3 32,24.4 34,23.4 34,19.2 		"/>
	</g>
	<g>
		<polygon class="st1" points="22.6,19.5 26.6,21.6 34,17.7 34,13.6 		"/>
	</g>
</g>
<polygon class="st2" points="10.3,18.8 6.6,16.8 6.6,24 10.3,25.9 "/>
<polygon class="st2" points="0.8,32.4 0.8,40.4 4.5,42.3 4.5,30.5 "/>
</svg>
